<?xml version="1.0" encoding="UTF-8" standalone="no"?>
<svg width="208pt" height="210pt" viewBox="0.00 0.00 208.00 210.00" xmlns="http://www.w3.org/2000/svg" xmlns:xlink="http://www.w3.org/1999/xlink">
<g transform="translate(4 206)"> 
<g style="fill:none;stroke:black">
<path d="M8,-73C15,-93 40,-161 47,-180"/>
<path d="M6,-74C6,-87 6,-116 6,-128"/>
<path d="M55,-186C67,-188 96,-193 108,-195"/>
<path d="M55,-184C75,-181 146,-168 166,-164"/>
<path d="M54,-20C76,-32 167,-86 189,-98"/>
<path d="M54,-182C76,-170 167,-116 189,-104"/>
<path d="M53,-21C71,-42 150,-137 167,-159"/>
<path d="M51,-22C61,-49 103,-165 112,-191"/>
<path d="M49,-23C49,-48 49,-154 49,-180"/>
<path d="M47,-22C40,-42 15,-110 8,-129"/>
<path d="M45,-21C37,-31 18,-54 10,-64"/>
<path d="M192,-106C187,-118 177,-146 173,-158"/>
<path d="M173,-44C178,-56 188,-84 192,-96"/>
<path d="M171,-45C171,-65 171,-137 171,-157"/>
<path d="M169,-44C160,-68 124,-167 116,-191"/>
<path d="M167,-43C149,-64 70,-159 53,-181"/>
<path d="M166,-42C142,-55 35,-117 11,-131"/>
<path d="M166,-40C141,-44 36,-63 11,-67"/>
<path d="M166,-36C155,-30 129,-15 119,-9"/>
<path d="M165,-38C145,-35 74,-22 54,-18"/>
<path d="M119,-193C130,-187 156,-172 166,-166"/>
<path d="M118,-192C131,-176 177,-121 190,-105"/>
<path d="M118,-10C131,-26 177,-81 190,-97"/>
<path d="M116,-11C125,-35 161,-134 169,-158"/>
<path d="M114,-11C114,-39 114,-163 114,-191"/>
<path d="M112,-11C102,-38 60,-154 51,-180"/>
<path d="M110,-10C94,-29 26,-110 10,-130"/>
<path d="M11,-71C35,-84 142,-146 166,-160"/>
<path d="M11,-69C38,-73 161,-95 189,-100"/>
<path d="M11,-137C29,-147 91,-183 109,-193"/>
<path d="M11,-135C36,-139 141,-158 166,-162"/>
<path d="M11,-133C38,-129 161,-107 189,-102"/>
<path d="M109,-9C91,-19 29,-55 11,-65"/>
<path d="M108,-7C96,-9 67,-14 55,-16"/>
<path d="M10,-72C26,-91 94,-172 110,-192"/>
<path d="M10,-138C18,-148 37,-171 45,-181"/>
</g>
<g style="fill:blue;stroke:black">
<circle cx="6" cy="-68" r="5.4"/>
<circle cx="6" cy="-134" r="5.4"/>
<circle cx="49" cy="-185" r="5.4"/>
<circle cx="49" cy="-17" r="5.4"/>
<circle cx="194" cy="-101" r="5.4"/>
<circle cx="171" cy="-39" r="5.4"/>
<circle cx="171" cy="-163" r="5.4"/>
<circle cx="114" cy="-6" r="5.4"/>
<circle cx="114" cy="-196" r="5.4"/>
</g></g></svg>