<?xml version="1.0" encoding="UTF-8"?>
<!DOCTYPE svg PUBLIC "-//W3C//DTD SVG 1.1//EN" "http://www.w3.org/Graphics/SVG/1.1/DTD/svg11.dtd">
<svg version="1.1" viewBox="0 0 10250 9000" preserveAspectRatio="xMidYMid" fill-rule="evenodd" xmlns="http://www.w3.org/2000/svg" xmlns:xlink="http://www.w3.org/1999/xlink">
  <defs>
    <style type="text/css">
    .ko {fill:#000000;fill-opacity:1;}
   </style>
  </defs>
  
<g visibility="visible" id="Standard"><desc>Master slide</desc></g>
<g visibility="visible" id="page1"><desc>Slide</desc>

<g style="fill:#0000FF"><path d="M 2794,226 L 4044,2476 3956,2524 2706,274 2794,226 Z"/></g>
<g style="fill:#00FF00"><path d="M 7544,274 L 6294,2524 6206,2476 7456,226 7544,274 Z"/></g>
<g style="fill:#FF0000"><path d="M 7500,4450 L 10000,4450 10000,4550 7500,4550 7500,4450 Z"/></g>
<g style="fill:#00FF00"><path d="M 2706,8726 L 3956,6476 4044,6524 2794,8774 2706,8726 Z"/></g>
<g style="fill:#0000FF"><path d="M 6294,6476 L 7544,8726 7456,8774 6206,6524 6294,6476 Z"/></g>
<g style="fill:#FF0000"><path d="M 250,4450 L 2750,4450 2750,4550 250,4550 250,4450 Z"/></g>
<g style="fill:#FF0000"><path d="M 4050,2500 L 4050,6500 3950,6500 3950,2500 4050,2500 Z"/></g>
<g style="fill:#0000FF"><path d="M 7525,4543 L 4025,6543 3975,6457 7475,4457 7525,4543 Z"/></g>
<g style="fill:#00FF00"><path d="M 4025,2457 L 7525,4457 7475,4543 3975,2543 4025,2457 Z"/></g>
<g style="fill:#FF0000"><path d="M 6300,2500 L 6300,6500 6200,6500 6200,2500 6300,2500 Z"/></g>
<g style="fill:#00FF00"><path d="M 2775,4457 L 6275,6457 6225,6543 2725,4543 2775,4457 Z"/></g>
<g style="fill:#0000FF"><path d="M 6275,2543 L 2775,4543 2725,4457 6225,2457 6275,2543 Z"/></g>
<g style="fill:#0000FF"><path d="M 293,4475 L 2793,8725 2707,8775 207,4525 293,4475 Z"/></g>
<g style="fill:#FF0000"><path d="M 7500,8800 L 2750,8800 2750,8700 7500,8700 7500,8800 Z"/></g>
<g style="fill:#00FF00"><path d="M 207,4475 L 2707,225 2793,275 293,4525 207,4475 Z"/></g>
<g style="fill:#FF0000"><path d="M 7500,300 L 2750,300 2750,200 7500,200 7500,300 Z"/></g>
<g style="fill:#0000FF"><path d="M 9957,4525 L 7457,275 7543,225 10043,4475 9957,4525 Z"/></g>
<g style="fill:#00FF00"><path d="M 10043,4525 L 7543,8775 7457,8725 9957,4475 10043,4525 Z"/></g>

<g class="ko"><path d="M 6500,2500 L 6500,2487 6499,2475 6497,2462 6495,2450 6492,2437 6489,2425 6484,2413 6480,2401 6474,2390 6469,2379 6462,2368 6455,2357 6448,2347 6440,2337 6431,2328 6422,2319 6413,2310 6403,2302 6393,2295 6382,2288 6371,2281 6360,2276 6349,2270 6337,2266 6325,2261 6313,2258 6300,2255 6288,2253 6275,2251 6263,2250 6250,2250 6250,2250 6237,2250 6225,2251 6212,2253 6200,2255 6187,2258 6175,2261 6163,2266 6151,2270 6140,2276 6129,2281 6118,2288 6107,2295 6097,2302 6087,2310 6078,2319 6069,2328 6060,2337 6052,2347 6045,2357 6038,2368 6031,2379 6026,2390 6020,2401 6016,2413 6011,2425 6008,2437 6005,2450 6003,2462 6001,2475 6000,2487 6000,2500 6000,2500 6000,2513 6001,2525 6003,2538 6005,2550 6008,2563 6011,2575 6016,2587 6020,2599 6026,2610 6031,2621 6038,2632 6045,2643 6052,2653 6060,2663 6069,2672 6078,2681 6087,2690 6097,2698 6107,2705 6118,2712 6129,2719 6140,2724 6151,2730 6163,2734 6175,2739 6187,2742 6200,2745 6212,2747 6225,2749 6237,2750 6250,2750 6250,2750 6263,2750 6275,2749 6288,2747 6300,2745 6313,2742 6325,2739 6337,2734 6349,2730 6360,2724 6371,2719 6382,2712 6393,2705 6403,2698 6413,2690 6422,2681 6431,2672 6440,2663 6448,2653 6455,2643 6462,2632 6469,2621 6474,2610 6480,2599 6484,2587 6489,2575 6492,2563 6495,2550 6497,2538 6499,2525 6500,2513 6500,2500 Z"/></g>
<g class="ko"><path d="M 7750,4500 L 7750,4487 7749,4475 7747,4462 7745,4450 7742,4437 7739,4425 7734,4413 7730,4401 7724,4390 7719,4379 7712,4368 7705,4357 7698,4347 7690,4337 7681,4328 7672,4319 7663,4310 7653,4302 7643,4295 7632,4288 7621,4281 7610,4276 7599,4270 7587,4266 7575,4261 7563,4258 7550,4255 7538,4253 7525,4251 7513,4250 7500,4250 7500,4250 7487,4250 7475,4251 7462,4253 7450,4255 7437,4258 7425,4261 7413,4266 7401,4270 7390,4276 7379,4281 7368,4288 7357,4295 7347,4302 7337,4310 7328,4319 7319,4328 7310,4337 7302,4347 7295,4357 7288,4368 7281,4379 7276,4390 7270,4401 7266,4413 7261,4425 7258,4437 7255,4450 7253,4462 7251,4475 7250,4487 7250,4500 7250,4500 7250,4513 7251,4525 7253,4538 7255,4550 7258,4563 7261,4575 7266,4587 7270,4599 7276,4610 7281,4621 7288,4632 7295,4643 7302,4653 7310,4663 7319,4672 7328,4681 7337,4690 7347,4698 7357,4705 7368,4712 7379,4719 7390,4724 7401,4730 7413,4734 7425,4739 7437,4742 7450,4745 7462,4747 7475,4749 7487,4750 7500,4750 7500,4750 7513,4750 7525,4749 7538,4747 7550,4745 7563,4742 7575,4739 7587,4734 7599,4730 7610,4724 7621,4719 7632,4712 7643,4705 7653,4698 7663,4690 7672,4681 7681,4672 7690,4663 7698,4653 7705,4643 7712,4632 7719,4621 7724,4610 7730,4599 7734,4587 7739,4575 7742,4563 7745,4550 7747,4538 7749,4525 7750,4513 7750,4500 Z"/></g>
<g class="ko"><path d="M 6500,6500 L 6500,6487 6499,6475 6497,6462 6495,6450 6492,6437 6489,6425 6484,6413 6480,6401 6474,6390 6469,6379 6462,6368 6455,6357 6448,6347 6440,6337 6431,6328 6422,6319 6413,6310 6403,6302 6393,6295 6382,6288 6371,6281 6360,6276 6349,6270 6337,6266 6325,6261 6313,6258 6300,6255 6288,6253 6275,6251 6263,6250 6250,6250 6250,6250 6237,6250 6225,6251 6212,6253 6200,6255 6187,6258 6175,6261 6163,6266 6151,6270 6140,6276 6129,6281 6118,6288 6107,6295 6097,6302 6087,6310 6078,6319 6069,6328 6060,6337 6052,6347 6045,6357 6038,6368 6031,6379 6026,6390 6020,6401 6016,6413 6011,6425 6008,6437 6005,6450 6003,6462 6001,6475 6000,6487 6000,6500 6000,6500 6000,6513 6001,6525 6003,6538 6005,6550 6008,6563 6011,6575 6016,6587 6020,6599 6026,6610 6031,6621 6038,6632 6045,6643 6052,6653 6060,6663 6069,6672 6078,6681 6087,6690 6097,6698 6107,6705 6118,6712 6129,6719 6140,6724 6151,6730 6163,6734 6175,6739 6187,6742 6200,6745 6212,6747 6225,6749 6237,6750 6250,6750 6250,6750 6263,6750 6275,6749 6288,6747 6300,6745 6313,6742 6325,6739 6337,6734 6349,6730 6360,6724 6371,6719 6382,6712 6393,6705 6403,6698 6413,6690 6422,6681 6431,6672 6440,6663 6448,6653 6455,6643 6462,6632 6469,6621 6474,6610 6480,6599 6484,6587 6489,6575 6492,6563 6495,6550 6497,6538 6499,6525 6500,6513 6500,6500 Z"/></g>
<g class="ko"><path d="M 4250,6500 L 4250,6487 4249,6475 4247,6462 4245,6450 4242,6437 4239,6425 4234,6413 4230,6401 4224,6390 4219,6379 4212,6368 4205,6357 4198,6347 4190,6337 4181,6328 4172,6319 4163,6310 4153,6302 4143,6295 4132,6288 4121,6281 4110,6276 4099,6270 4087,6266 4075,6261 4063,6258 4050,6255 4038,6253 4025,6251 4013,6250 4000,6250 4000,6250 3987,6250 3975,6251 3962,6253 3950,6255 3937,6258 3925,6261 3913,6266 3901,6270 3890,6276 3879,6281 3868,6288 3857,6295 3847,6302 3837,6310 3828,6319 3819,6328 3810,6337 3802,6347 3795,6357 3788,6368 3781,6379 3776,6390 3770,6401 3766,6413 3761,6425 3758,6437 3755,6450 3753,6462 3751,6475 3750,6487 3750,6500 3750,6500 3750,6513 3751,6525 3753,6538 3755,6550 3758,6563 3761,6575 3766,6587 3770,6599 3776,6610 3781,6621 3788,6632 3795,6643 3802,6653 3810,6663 3819,6672 3828,6681 3837,6690 3847,6698 3857,6705 3868,6712 3879,6719 3890,6724 3901,6730 3913,6734 3925,6739 3937,6742 3950,6745 3962,6747 3975,6749 3987,6750 4000,6750 4000,6750 4013,6750 4025,6749 4038,6747 4050,6745 4063,6742 4075,6739 4087,6734 4099,6730 4110,6724 4121,6719 4132,6712 4143,6705 4153,6698 4163,6690 4172,6681 4181,6672 4190,6663 4198,6653 4205,6643 4212,6632 4219,6621 4224,6610 4230,6599 4234,6587 4239,6575 4242,6563 4245,6550 4247,6538 4249,6525 4250,6513 4250,6500 Z"/></g>
<g class="ko"><path d="M 3000,4500 L 3000,4487 2999,4475 2997,4462 2995,4450 2992,4437 2989,4425 2984,4413 2980,4401 2974,4390 2969,4379 2962,4368 2955,4357 2948,4347 2940,4337 2931,4328 2922,4319 2913,4310 2903,4302 2893,4295 2882,4288 2871,4281 2860,4276 2849,4270 2837,4266 2825,4261 2813,4258 2800,4255 2788,4253 2775,4251 2763,4250 2750,4250 2750,4250 2737,4250 2725,4251 2712,4253 2700,4255 2687,4258 2675,4261 2663,4266 2651,4270 2640,4276 2629,4281 2618,4288 2607,4295 2597,4302 2587,4310 2578,4319 2569,4328 2560,4337 2552,4347 2545,4357 2538,4368 2531,4379 2526,4390 2520,4401 2516,4413 2511,4425 2508,4437 2505,4450 2503,4462 2501,4475 2500,4487 2500,4500 2500,4500 2500,4513 2501,4525 2503,4538 2505,4550 2508,4563 2511,4575 2516,4587 2520,4599 2526,4610 2531,4621 2538,4632 2545,4643 2552,4653 2560,4663 2569,4672 2578,4681 2587,4690 2597,4698 2607,4705 2618,4712 2629,4719 2640,4724 2651,4730 2663,4734 2675,4739 2687,4742 2700,4745 2712,4747 2725,4749 2737,4750 2750,4750 2750,4750 2763,4750 2775,4749 2788,4747 2800,4745 2813,4742 2825,4739 2837,4734 2849,4730 2860,4724 2871,4719 2882,4712 2893,4705 2903,4698 2913,4690 2922,4681 2931,4672 2940,4663 2948,4653 2955,4643 2962,4632 2969,4621 2974,4610 2980,4599 2984,4587 2989,4575 2992,4563 2995,4550 2997,4538 2999,4525 3000,4513 3000,4500 Z"/></g>
<g class="ko"><path d="M 4250,2500 L 4250,2487 4249,2475 4247,2462 4245,2450 4242,2437 4239,2425 4234,2413 4230,2401 4224,2390 4219,2379 4212,2368 4205,2357 4198,2347 4190,2337 4181,2328 4172,2319 4163,2310 4153,2302 4143,2295 4132,2288 4121,2281 4110,2276 4099,2270 4087,2266 4075,2261 4063,2258 4050,2255 4038,2253 4025,2251 4013,2250 4000,2250 4000,2250 3987,2250 3975,2251 3962,2253 3950,2255 3937,2258 3925,2261 3913,2266 3901,2270 3890,2276 3879,2281 3868,2288 3857,2295 3847,2302 3837,2310 3828,2319 3819,2328 3810,2337 3802,2347 3795,2357 3788,2368 3781,2379 3776,2390 3770,2401 3766,2413 3761,2425 3758,2437 3755,2450 3753,2462 3751,2475 3750,2487 3750,2500 3750,2500 3750,2513 3751,2525 3753,2538 3755,2550 3758,2563 3761,2575 3766,2587 3770,2599 3776,2610 3781,2621 3788,2632 3795,2643 3802,2653 3810,2663 3819,2672 3828,2681 3837,2690 3847,2698 3857,2705 3868,2712 3879,2719 3890,2724 3901,2730 3913,2734 3925,2739 3937,2742 3950,2745 3962,2747 3975,2749 3987,2750 4000,2750 4000,2750 4013,2750 4025,2749 4038,2747 4050,2745 4063,2742 4075,2739 4087,2734 4099,2730 4110,2724 4121,2719 4132,2712 4143,2705 4153,2698 4163,2690 4172,2681 4181,2672 4190,2663 4198,2653 4205,2643 4212,2632 4219,2621 4224,2610 4230,2599 4234,2587 4239,2575 4242,2563 4245,2550 4247,2538 4249,2525 4250,2513 4250,2500 Z"/></g>
<g class="ko"><path d="M 3000,250 L 3000,237 2999,225 2997,212 2995,200 2992,187 2989,175 2984,163 2980,151 2974,140 2969,129 2962,118 2955,107 2948,97 2940,87 2931,78 2922,69 2913,60 2903,52 2893,45 2882,38 2871,31 2860,26 2849,20 2837,16 2825,11 2813,8 2800,5 2788,3 2775,1 2763,0 2750,0 2750,0 2737,0 2725,1 2712,3 2700,5 2687,8 2675,11 2663,16 2651,20 2640,26 2629,31 2618,38 2607,45 2597,52 2587,60 2578,69 2569,78 2560,87 2552,97 2545,107 2538,118 2531,129 2526,140 2520,151 2516,163 2511,175 2508,187 2505,200 2503,212 2501,225 2500,237 2500,250 2500,250 2500,263 2501,275 2503,288 2505,300 2508,313 2511,325 2516,337 2520,349 2526,360 2531,371 2538,382 2545,393 2552,403 2560,413 2569,422 2578,431 2587,440 2597,448 2607,455 2618,462 2629,469 2640,474 2651,480 2663,484 2675,489 2687,492 2700,495 2712,497 2725,499 2737,500 2750,500 2750,500 2763,500 2775,499 2788,497 2800,495 2813,492 2825,489 2837,484 2849,480 2860,474 2871,469 2882,462 2893,455 2903,448 2913,440 2922,431 2931,422 2940,413 2948,403 2955,393 2962,382 2969,371 2974,360 2980,349 2984,337 2989,325 2992,313 2995,300 2997,288 2999,275 3000,263 3000,250 Z"/></g>
<g class="ko"><path d="M 7750,250 L 7750,237 7749,225 7747,212 7745,200 7742,187 7739,175 7734,163 7730,151 7724,140 7719,129 7712,118 7705,107 7698,97 7690,87 7681,78 7672,69 7663,60 7653,52 7643,45 7632,38 7621,31 7610,26 7599,20 7587,16 7575,11 7563,8 7550,5 7538,3 7525,1 7513,0 7500,0 7500,0 7487,0 7475,1 7462,3 7450,5 7437,8 7425,11 7413,16 7401,20 7390,26 7379,31 7368,38 7357,45 7347,52 7337,60 7328,69 7319,78 7310,87 7302,97 7295,107 7288,118 7281,129 7276,140 7270,151 7266,163 7261,175 7258,187 7255,200 7253,212 7251,225 7250,237 7250,250 7250,250 7250,263 7251,275 7253,288 7255,300 7258,313 7261,325 7266,337 7270,349 7276,360 7281,371 7288,382 7295,393 7302,403 7310,413 7319,422 7328,431 7337,440 7347,448 7357,455 7368,462 7379,469 7390,474 7401,480 7413,484 7425,489 7437,492 7450,495 7462,497 7475,499 7487,500 7500,500 7500,500 7513,500 7525,499 7538,497 7550,495 7563,492 7575,489 7587,484 7599,480 7610,474 7621,469 7632,462 7643,455 7653,448 7663,440 7672,431 7681,422 7690,413 7698,403 7705,393 7712,382 7719,371 7724,360 7730,349 7734,337 7739,325 7742,313 7745,300 7747,288 7749,275 7750,263 7750,250 Z"/></g>
<g class="ko"><path d="M 500,4500 L 500,4487 499,4475 497,4462 495,4450 492,4437 489,4425 484,4413 480,4401 474,4390 469,4379 462,4368 455,4357 448,4347 440,4337 431,4328 422,4319 413,4310 403,4302 393,4295 382,4288 371,4281 360,4276 349,4270 337,4266 325,4261 313,4258 300,4255 288,4253 275,4251 263,4250 250,4250 250,4250 237,4250 225,4251 212,4253 200,4255 187,4258 175,4261 163,4266 151,4270 140,4276 129,4281 118,4288 107,4295 97,4302 87,4310 78,4319 69,4328 60,4337 52,4347 45,4357 38,4368 31,4379 26,4390 20,4401 16,4413 11,4425 8,4437 5,4450 3,4462 1,4475 0,4487 0,4500 0,4500 0,4513 1,4525 3,4538 5,4550 8,4563 11,4575 16,4587 20,4599 26,4610 31,4621 38,4632 45,4643 52,4653 60,4663 69,4672 78,4681 87,4690 97,4698 107,4705 118,4712 129,4719 140,4724 151,4730 163,4734 175,4739 187,4742 200,4745 212,4747 225,4749 237,4750 250,4750 250,4750 263,4750 275,4749 288,4747 300,4745 313,4742 325,4739 337,4734 349,4730 360,4724 371,4719 382,4712 393,4705 403,4698 413,4690 422,4681 431,4672 440,4663 448,4653 455,4643 462,4632 469,4621 474,4610 480,4599 484,4587 489,4575 492,4563 495,4550 497,4538 499,4525 500,4513 500,4500 Z"/></g>
<g class="ko"><path d="M 3000,8750 L 3000,8737 2999,8725 2997,8712 2995,8700 2992,8687 2989,8675 2984,8663 2980,8651 2974,8640 2969,8629 2962,8618 2955,8607 2948,8597 2940,8587 2931,8578 2922,8569 2913,8560 2903,8552 2893,8545 2882,8538 2871,8531 2860,8526 2849,8520 2837,8516 2825,8511 2813,8508 2800,8505 2788,8503 2775,8501 2763,8500 2750,8500 2750,8500 2737,8500 2725,8501 2712,8503 2700,8505 2687,8508 2675,8511 2663,8516 2651,8520 2640,8526 2629,8531 2618,8538 2607,8545 2597,8552 2587,8560 2578,8569 2569,8578 2560,8587 2552,8597 2545,8607 2538,8618 2531,8629 2526,8640 2520,8651 2516,8663 2511,8675 2508,8687 2505,8700 2503,8712 2501,8725 2500,8737 2500,8750 2500,8750 2500,8763 2501,8775 2503,8788 2505,8800 2508,8813 2511,8825 2516,8837 2520,8849 2526,8860 2531,8871 2538,8882 2545,8893 2552,8903 2560,8913 2569,8922 2578,8931 2587,8940 2597,8948 2607,8955 2618,8962 2629,8969 2640,8974 2651,8980 2663,8984 2675,8989 2687,8992 2700,8995 2712,8997 2725,8999 2737,9000 2750,9000 2750,9000 2763,9000 2775,8999 2788,8997 2800,8995 2813,8992 2825,8989 2837,8984 2849,8980 2860,8974 2871,8969 2882,8962 2893,8955 2903,8948 2913,8940 2922,8931 2931,8922 2940,8913 2948,8903 2955,8893 2962,8882 2969,8871 2974,8860 2980,8849 2984,8837 2989,8825 2992,8813 2995,8800 2997,8788 2999,8775 3000,8763 3000,8750 Z"/></g>
<g class="ko"><path d="M 7750,8750 L 7750,8737 7749,8725 7747,8712 7745,8700 7742,8687 7739,8675 7734,8663 7730,8651 7724,8640 7719,8629 7712,8618 7705,8607 7698,8597 7690,8587 7681,8578 7672,8569 7663,8560 7653,8552 7643,8545 7632,8538 7621,8531 7610,8526 7599,8520 7587,8516 7575,8511 7563,8508 7550,8505 7538,8503 7525,8501 7513,8500 7500,8500 7500,8500 7487,8500 7475,8501 7462,8503 7450,8505 7437,8508 7425,8511 7413,8516 7401,8520 7390,8526 7379,8531 7368,8538 7357,8545 7347,8552 7337,8560 7328,8569 7319,8578 7310,8587 7302,8597 7295,8607 7288,8618 7281,8629 7276,8640 7270,8651 7266,8663 7261,8675 7258,8687 7255,8700 7253,8712 7251,8725 7250,8737 7250,8750 7250,8750 7250,8763 7251,8775 7253,8788 7255,8800 7258,8813 7261,8825 7266,8837 7270,8849 7276,8860 7281,8871 7288,8882 7295,8893 7302,8903 7310,8913 7319,8922 7328,8931 7337,8940 7347,8948 7357,8955 7368,8962 7379,8969 7390,8974 7401,8980 7413,8984 7425,8989 7437,8992 7450,8995 7462,8997 7475,8999 7487,9000 7500,9000 7500,9000 7513,9000 7525,8999 7538,8997 7550,8995 7563,8992 7575,8989 7587,8984 7599,8980 7610,8974 7621,8969 7632,8962 7643,8955 7653,8948 7663,8940 7672,8931 7681,8922 7690,8913 7698,8903 7705,8893 7712,8882 7719,8871 7724,8860 7730,8849 7734,8837 7739,8825 7742,8813 7745,8800 7747,8788 7749,8775 7750,8763 7750,8750 Z"/></g>
<g class="ko"><path d="M 10250,4500 L 10250,4487 10249,4475 10247,4462 10245,4450 10242,4437 10239,4425 10234,4413 10230,4401 10224,4390 10219,4379 10212,4368 10205,4357 10198,4347 10190,4337 10181,4328 10172,4319 10163,4310 10153,4302 10143,4295 10132,4288 10121,4281 10110,4276 10099,4270 10087,4266 10075,4261 10063,4258 10050,4255 10038,4253 10025,4251 10013,4250 10000,4250 10000,4250 9987,4250 9975,4251 9962,4253 9950,4255 9937,4258 9925,4261 9913,4266 9901,4270 9890,4276 9879,4281 9868,4288 9857,4295 9847,4302 9837,4310 9828,4319 9819,4328 9810,4337 9802,4347 9795,4357 9788,4368 9781,4379 9776,4390 9770,4401 9766,4413 9761,4425 9758,4437 9755,4450 9753,4462 9751,4475 9750,4487 9750,4500 9750,4500 9750,4513 9751,4525 9753,4538 9755,4550 9758,4563 9761,4575 9766,4587 9770,4599 9776,4610 9781,4621 9788,4632 9795,4643 9802,4653 9810,4663 9819,4672 9828,4681 9837,4690 9847,4698 9857,4705 9868,4712 9879,4719 9890,4724 9901,4730 9913,4734 9925,4739 9937,4742 9950,4745 9962,4747 9975,4749 9987,4750 10000,4750 10000,4750 10013,4750 10025,4749 10038,4747 10050,4745 10063,4742 10075,4739 10087,4734 10099,4730 10110,4724 10121,4719 10132,4712 10143,4705 10153,4698 10163,4690 10172,4681 10181,4672 10190,4663 10198,4653 10205,4643 10212,4632 10219,4621 10224,4610 10230,4599 10234,4587 10239,4575 10242,4563 10245,4550 10247,4538 10249,4525 10250,4513 10250,4500 Z"/></g></g></svg>