<?xml version="1.0" encoding="iso-8859-1"?>
<!-- Uploaded to: SVG Repo, www.svgrepo.com, Generator: SVG Repo Mixer Tools -->
<svg fill="#000000" height="800px" width="800px" version="1.1" id="Capa_1" xmlns="http://www.w3.org/2000/svg" xmlns:xlink="http://www.w3.org/1999/xlink" 
	 viewBox="0 0 484.4 484.4" xml:space="preserve">
<g>
	<path d="M442,199.9c-19.1,0-35.2,12.7-40.4,30h-37.8c-2.3-23.3-11.1-45.2-25.5-63.5l27.5-27.5c15.6,7.2,34.6,4.4,47.4-8.5
		c16.4-16.4,16.4-43.1,0-59.5s-43.1-16.4-59.5,0c-12.8,12.8-15.6,31.9-8.5,47.4l-27.5,27.5c-17.7-14-38.7-22.6-61-25.3V81.8
		c16.1-5.9,27.6-21.4,27.6-39.6c0-23.3-18.9-42.2-42.2-42.2s-42.2,18.9-42.2,42.2c0,18.2,11.5,33.7,27.6,39.6v38.9
		c-22.4,2.6-43.4,11.3-61,25.3L139,118.5c2.5-5.4,3.9-11.4,3.9-17.7c0-23.3-18.9-42.2-42.2-42.2s-42.2,18.9-42.2,42.2
		S77.4,143,100.7,143c6.3,0,12.3-1.4,17.7-3.9l27.5,27.5c-14,17.7-22.6,38.7-25.3,61H81.8C75.9,211.5,60.4,200,42.2,200
		C18.9,200,0,218.9,0,242.2s18.9,42.2,42.2,42.2c18.2,0,33.7-11.5,39.6-27.6h38.9c2.6,22.4,11.3,43.4,25.3,61l-27.5,27.5
		c-5.4-2.5-11.4-3.9-17.7-3.9c-23.3,0-42.2,18.9-42.2,42.2c0,23.3,18.9,42.2,42.2,42.2s42.2-18.9,42.2-42.2c0-6.3-1.4-12.3-3.9-17.7
		l27.5-27.5c17.7,14,38.7,22.6,61,25.3v38.9c-16.1,5.9-27.6,21.4-27.6,39.6c0,23.3,18.9,42.2,42.2,42.2s42.2-18.9,42.2-42.2
		c0-18.2-11.5-33.7-27.6-39.6v-38.9c22.4-2.6,43.4-11.3,61-25.3l27.5,27.5c-2.5,5.4-3.9,11.4-3.9,17.7c0,23.3,18.9,42.2,42.2,42.2
		c23.3,0,42.2-18.9,42.2-42.2c0-23.3-18.9-42.2-42.2-42.2c-6.3,0-12.3,1.4-17.7,3.9l-27.5-27.5c13.4-17,22-37.1,25-58.6h40.2
		c6.5,14.8,21.3,25.2,38.6,25.2c23.3,0,42.2-18.9,42.2-42.2C484.2,218.8,465.3,199.9,442,199.9z M308.8,313.3
		c-17.6-10.6-35.3-19.2-35.3-19.2c-3-1.5-4.8-5.9-5.8-11.3c-0.3-1.5-0.5-3.1-0.7-4.7c19.8-17.4,15.8-55,15.8-55
		c-1.9-42.2-37.2-41.8-40.7-41.7c-3.5-0.1-38.8-0.5-40.7,41.7c0,0-4.1,37.6,15.8,55c-0.2,1.6-0.4,3.2-0.7,4.7
		c-1,5.4-2.8,9.8-5.8,11.3c0,0-17.7,8.6-35.3,19.2c-19-17.8-30.9-43.1-30.9-71.2c0-53.9,43.7-97.7,97.7-97.7
		c53.9,0,97.7,43.7,97.7,97.7C339.8,270.2,327.9,295.5,308.8,313.3z"/>
</g>
</svg>